<svg width="66" height="66" viewBox="0 0 66 66" xmlns="http://www.w3.org/2000/svg"><title>logo_bottom</title><g fill="none" fill-rule="evenodd"><rect fill="#FFAE00" width="66" height="66" rx="8"/><path d="M23.976 20.912v-9.92h-9.088v9.92H9.384v6.08h5.504v19.52c0 1.664.277 3.008.832 4.032.555 1.024 1.312 1.813 2.272 2.368.96.555 2.07.928 3.328 1.12a26.53 26.53 0 0 0 4 .288c.896 0 1.813-.02 2.752-.064.94-.043 1.792-.128 2.56-.256v-7.04c-.427.085-.875.15-1.344.192-.47.043-.96.064-1.472.064-1.536 0-2.56-.256-3.072-.768s-.768-1.536-.768-3.072V26.992h6.656v-6.08h-6.656zm11.008 0V54h9.088V39.088c0-1.493.15-2.88.448-4.16.3-1.28.8-2.4 1.504-3.36s1.632-1.717 2.784-2.272c1.152-.555 2.56-.832 4.224-.832.555 0 1.13.032 1.728.096.597.064 1.11.14 1.536.224v-8.448c-.725-.213-1.387-.32-1.984-.32-1.152 0-2.26.17-3.328.512-1.067.34-2.07.82-3.008 1.44a11.32 11.32 0 0 0-2.496 2.24c-.725.875-1.3 1.824-1.728 2.848h-.128v-6.144h-8.64z" fill="#FFF"/></g></svg>